<?xml version="1.0" encoding="UTF-8"?>
<svg width="900" height="132" viewBox="0 0 900 132" fill="none" xmlns="http://www.w3.org/2000/svg" font-family="'JetBrains Mono','SFMono-Regular',ui-monospace,Consolas,monospace">
  <defs>
    <linearGradient id="dpl" x1="0" y1="0" x2="900" y2="0" gradientUnits="userSpaceOnUse">
      <stop offset="0" stop-color="#8957E5"/><stop offset="0.5" stop-color="#58A6FF"/><stop offset="1" stop-color="#1F6FEB"/>
    </linearGradient>
  </defs>
  <rect x="1" y="1" width="898" height="130" rx="12" fill="#0D1117" stroke="#30363D" stroke-width="1.5"/>
  <rect x="1" y="1" width="898" height="4" rx="2" fill="url(#dpl)"/>
  <text x="36" y="40" fill="#6E7681" font-size="13">deploy &amp; ops</text>
  <g font-size="12">
    <rect x="36" y="56" width="92" height="26" rx="6" fill="#161B22" stroke="#30363D"/><text x="82" y="73" fill="#79C0FF" text-anchor="middle">Cloudflare</text>
    <rect x="136" y="56" width="68" height="26" rx="6" fill="#161B22" stroke="#30363D"/><text x="170" y="73" fill="#79C0FF" text-anchor="middle">Render</text>
    <rect x="212" y="56" width="70" height="26" rx="6" fill="#161B22" stroke="#30363D"/><text x="247" y="73" fill="#79C0FF" text-anchor="middle">Netlify</text>
    <rect x="290" y="56" width="68" height="26" rx="6" fill="#161B22" stroke="#30363D"/><text x="324" y="73" fill="#79C0FF" text-anchor="middle">Docker</text>
    <rect x="366" y="56" width="120" height="26" rx="6" fill="#161B22" stroke="#30363D"/><text x="426" y="73" fill="#79C0FF" text-anchor="middle">GitHub Actions</text>
    <rect x="494" y="56" width="150" height="26" rx="6" fill="#161B22" stroke="#30363D"/><text x="569" y="73" fill="#79C0FF" text-anchor="middle">Sentry / GlitchTip</text>
    <rect x="652" y="56" width="102" height="26" rx="6" fill="#161B22" stroke="#30363D"/><text x="703" y="73" fill="#79C0FF" text-anchor="middle">BetterStack</text>
  </g>
  <text x="36" y="110" fill="#8B949E" font-size="12">CI/CD · observability · zero-downtime deploys across edge and container targets.</text>
</svg>
