<?xml version="1.0" encoding="UTF-8"?>
<svg width="460" height="200" viewBox="0 0 460 200" fill="none" xmlns="http://www.w3.org/2000/svg" font-family="'JetBrains Mono','SFMono-Regular',ui-monospace,Consolas,monospace">
  <defs>
    <linearGradient id="sg" x1="0" y1="0" x2="460" y2="0" gradientUnits="userSpaceOnUse">
      <stop offset="0" stop-color="#1F6FEB"/><stop offset="1" stop-color="#3FB950"/>
    </linearGradient>
  </defs>
  <rect x="1" y="1" width="458" height="198" rx="12" fill="#0D1117" stroke="#30363D" stroke-width="1.5"/>
  <rect x="1" y="1" width="458" height="4" rx="2" fill="url(#sg)"/>
  <text x="24" y="30" fill="#6E7681" font-size="12">~/projects/strev</text>
  <text x="24" y="56" fill="#E6EDF3" font-size="22" font-weight="700">Strev</text>
  <rect x="350" y="38" width="86" height="22" rx="11" fill="#0E2A14" stroke="#3FB950"/>
  <text x="393" y="53" fill="#3FB950" font-size="12" text-anchor="middle">production</text>
  <text x="24" y="86" fill="#8B949E" font-size="13">Training SaaS — full control &amp; progressive overload.</text>
  <text x="24" y="108" fill="#8B949E" font-size="13">Athlete tracking · trainer 360º · AI video analysis.</text>
  <g font-size="11">
    <rect x="24" y="120" width="62" height="22" rx="6" fill="#161B22" stroke="#30363D"/><text x="55" y="135" fill="#79C0FF" text-anchor="middle">React 19</text>
    <rect x="94" y="120" width="74" height="22" rx="6" fill="#161B22" stroke="#30363D"/><text x="131" y="135" fill="#79C0FF" text-anchor="middle">Express 5</text>
    <rect x="176" y="120" width="72" height="22" rx="6" fill="#161B22" stroke="#30363D"/><text x="212" y="135" fill="#79C0FF" text-anchor="middle">MongoDB</text>
    <rect x="256" y="120" width="48" height="22" rx="6" fill="#161B22" stroke="#30363D"/><text x="280" y="135" fill="#79C0FF" text-anchor="middle">Zod</text>
    <rect x="312" y="120" width="56" height="22" rx="6" fill="#161B22" stroke="#30363D"/><text x="340" y="135" fill="#79C0FF" text-anchor="middle">Stripe</text>
  </g>
  <text x="24" y="172" font-size="13"><tspan fill="#58A6FF">$</tspan><tspan fill="#C9D1D9" dx="8">open</tspan><tspan fill="#D2A8FF" dx="8">strev.app</tspan><tspan fill="#58A6FF" dx="6">&#9608;</tspan></text>
</svg>
