<?xml version="1.0" encoding="UTF-8"?>
<svg width="460" height="200" viewBox="0 0 460 200" fill="none" xmlns="http://www.w3.org/2000/svg" font-family="'JetBrains Mono','SFMono-Regular',ui-monospace,Consolas,monospace">
  <defs>
    <linearGradient id="pg" x1="0" y1="0" x2="460" y2="0" gradientUnits="userSpaceOnUse">
      <stop offset="0" stop-color="#8957E5"/><stop offset="1" stop-color="#1F6FEB"/>
    </linearGradient>
  </defs>
  <rect x="1" y="1" width="458" height="198" rx="12" fill="#0D1117" stroke="#30363D" stroke-width="1.5"/>
  <rect x="1" y="1" width="458" height="4" rx="2" fill="url(#pg)"/>
  <text x="24" y="30" fill="#7D8590" font-size="12">~/projects/social-publisher</text>
  <text x="24" y="56" fill="#E6EDF3" font-size="22" font-weight="700">Social Publisher</text>
  <rect x="396" y="38" width="40" height="22" rx="11" fill="#1C1430" stroke="#8957E5"/>
  <text x="416" y="53" fill="#D2A8FF" font-size="12" text-anchor="middle">WIP</text>
  <text x="24" y="86" fill="#8B949E" font-size="13">Unifies posting across social networks.</text>
  <text x="24" y="108" fill="#8B949E" font-size="13">AI-drafted copy · preview · schedule · multi-account.</text>
  <g font-size="11">
    <rect x="24" y="120" width="48" height="22" rx="6" fill="#161B22" stroke="#30363D"/><text x="48" y="135" fill="#79C0FF" text-anchor="middle">Node</text>
    <rect x="80" y="120" width="52" height="22" rx="6" fill="#161B22" stroke="#30363D"/><text x="106" y="135" fill="#79C0FF" text-anchor="middle">React</text>
    <rect x="140" y="120" width="44" height="22" rx="6" fill="#161B22" stroke="#30363D"/><text x="162" y="135" fill="#79C0FF" text-anchor="middle">n8n</text>
    <rect x="192" y="120" width="60" height="22" rx="6" fill="#161B22" stroke="#30363D"/><text x="222" y="135" fill="#79C0FF" text-anchor="middle">Gemini</text>
  </g>
  <text x="24" y="172" font-size="13"><tspan fill="#58A6FF">$</tspan><tspan fill="#C9D1D9" dx="8">publish</tspan><tspan fill="#8B949E" dx="8">--all --schedule</tspan><tspan fill="#58A6FF" dx="6">&#9608;</tspan></text>
</svg>
